<?xml version="1.0" encoding="UTF-8" standalone="no"?>
<!DOCTYPE svg PUBLIC "-//W3C//DTD SVG 1.1//EN"
 "http://www.w3.org/Graphics/SVG/1.1/DTD/svg11.dtd">
<!-- Generated by graphviz version 2.40.1 (0)
 -->
<!-- Title: dependency&#45;cruiser output Pages: 1 -->
<svg width="254pt" height="120pt"
 viewBox="0.00 0.00 254.00 120.00" xmlns="http://www.w3.org/2000/svg" xmlns:xlink="http://www.w3.org/1999/xlink">
<g id="graph0" class="graph" transform="scale(1 1) rotate(0) translate(4 116)">
<title>dependency&#45;cruiser output</title>
<polygon fill="#ffffff" stroke="transparent" points="-4,4 -4,-116 250,-116 250,4 -4,4"/>
<g id="clust1" class="cluster">
<title>cluster_src</title>
<path fill="#ffffff" stroke="#000000" stroke-width="2" d="M20,-8C20,-8 226,-8 226,-8 232,-8 238,-14 238,-20 238,-20 238,-92 238,-92 238,-98 232,-104 226,-104 226,-104 20,-104 20,-104 14,-104 8,-98 8,-92 8,-92 8,-20 8,-20 8,-14 14,-8 20,-8"/>
<text text-anchor="middle" x="123" y="-92.8" font-family="Helvetica,sans-Serif" font-weight="bold" font-size="9.00" fill="#000000">src</text>
</g>
<!-- src/event&#45;utils.ts -->
<g id="node1" class="node">
<title>src/event&#45;utils.ts</title>
<g id="a_node1"><a xlink:href="https://github.com/dragonman225/bmvis/tree/master/src/event-utils.ts" xlink:title="event&#45;utils.ts">
<path fill="#ddfeff" stroke="#000000" d="M152,-34C152,-34 89,-34 89,-34 86,-34 83,-31 83,-28 83,-28 83,-22 83,-22 83,-19 86,-16 89,-16 89,-16 152,-16 152,-16 155,-16 158,-19 158,-22 158,-22 158,-28 158,-28 158,-31 155,-34 152,-34"/>
<text text-anchor="middle" x="120.5" y="-22.8" font-family="Helvetica,sans-Serif" font-size="9.00" fill="#000000">event&#45;utils.ts</text>
</a>
</g>
</g>
<!-- src/handleFile.ts -->
<g id="node2" class="node">
<title>src/handleFile.ts</title>
<g id="a_node2"><a xlink:href="https://github.com/dragonman225/bmvis/tree/master/src/handleFile.ts" xlink:title="handleFile.ts">
<path fill="#ddfeff" stroke="#000000" d="M151,-64C151,-64 90,-64 90,-64 87,-64 84,-61 84,-58 84,-58 84,-52 84,-52 84,-49 87,-46 90,-46 90,-46 151,-46 151,-46 154,-46 157,-49 157,-52 157,-52 157,-58 157,-58 157,-61 154,-64 151,-64"/>
<text text-anchor="middle" x="120.5" y="-52.8" font-family="Helvetica,sans-Serif" font-size="9.00" fill="#000000">handleFile.ts</text>
</a>
</g>
</g>
<!-- src/strings.ts -->
<g id="node4" class="node">
<title>src/strings.ts</title>
<g id="a_node4"><a xlink:href="https://github.com/dragonman225/bmvis/tree/master/src/strings.ts" xlink:title="strings.ts">
<path fill="#ddfeff" stroke="#000000" d="M224,-71C224,-71 177,-71 177,-71 174,-71 171,-68 171,-65 171,-65 171,-59 171,-59 171,-56 174,-53 177,-53 177,-53 224,-53 224,-53 227,-53 230,-56 230,-59 230,-59 230,-65 230,-65 230,-68 227,-71 224,-71"/>
<text text-anchor="middle" x="200.5" y="-59.8" font-family="Helvetica,sans-Serif" font-size="9.00" fill="#000000">strings.ts</text>
</a>
</g>
</g>
<!-- src/handleFile.ts&#45;&gt;src/strings.ts -->
<g id="edge1" class="edge">
<title>src/handleFile.ts&#45;&gt;src/strings.ts</title>
<path fill="none" stroke="#000000" stroke-width="2" stroke-opacity="0.466667" d="M157.222,-58.2132C158.3721,-58.3138 159.5259,-58.4148 160.6794,-58.5157"/>
<polygon fill="#000000" fill-opacity="0.466667" stroke="#000000" stroke-width="2" stroke-opacity="0.466667" points="160.6854,-62.0295 170.9524,-59.4146 161.2956,-55.0562 160.6854,-62.0295"/>
</g>
<!-- src/index.ts -->
<g id="node3" class="node">
<title>src/index.ts</title>
<g id="a_node3"><a xlink:href="https://github.com/dragonman225/bmvis/tree/master/src/index.ts" xlink:title="index.ts">
<path fill="#ddfeff" stroke="#000000" d="M64,-64C64,-64 22,-64 22,-64 19,-64 16,-61 16,-58 16,-58 16,-52 16,-52 16,-49 19,-46 22,-46 22,-46 64,-46 64,-46 67,-46 70,-49 70,-52 70,-52 70,-58 70,-58 70,-61 67,-64 64,-64"/>
<text text-anchor="middle" x="43" y="-52.8" font-family="Helvetica,sans-Serif" font-size="9.00" fill="#000000">index.ts</text>
</a>
</g>
</g>
<!-- src/index.ts&#45;&gt;src/event&#45;utils.ts -->
<g id="edge2" class="edge">
<title>src/index.ts&#45;&gt;src/event&#45;utils.ts</title>
<path fill="none" stroke="#000000" stroke-width="2" stroke-opacity="0.466667" d="M66.2526,-45.999C72.9349,-43.4123 80.3534,-40.5406 87.5045,-37.7724"/>
<polygon fill="#000000" fill-opacity="0.466667" stroke="#000000" stroke-width="2" stroke-opacity="0.466667" points="88.9338,-40.9723 96.996,-34.0983 86.4068,-34.4443 88.9338,-40.9723"/>
</g>
<!-- src/index.ts&#45;&gt;src/handleFile.ts -->
<g id="edge3" class="edge">
<title>src/index.ts&#45;&gt;src/handleFile.ts</title>
<path fill="none" stroke="#000000" stroke-width="2" stroke-opacity="0.466667" d="M70.1057,-55C71.2188,-55 72.346,-55 73.4832,-55"/>
<polygon fill="#000000" fill-opacity="0.466667" stroke="#000000" stroke-width="2" stroke-opacity="0.466667" points="73.8741,-58.5001 83.8741,-55 73.8741,-51.5001 73.8741,-58.5001"/>
</g>
<!-- src/index.ts&#45;&gt;src/strings.ts -->
<g id="edge4" class="edge">
<title>src/index.ts&#45;&gt;src/strings.ts</title>
<path fill="none" stroke="#000000" stroke-width="2" stroke-opacity="0.466667" d="M62.9489,-64.0817C69.2319,-66.5029 76.2862,-68.7825 83,-70 115.7985,-75.9475 124.8108,-73.0965 158,-70 158.9158,-69.9146 159.8412,-69.819 160.7733,-69.7144"/>
<polygon fill="#000000" fill-opacity="0.466667" stroke="#000000" stroke-width="2" stroke-opacity="0.466667" points="161.4568,-73.153 170.8767,-68.3039 160.4888,-66.2203 161.4568,-73.153"/>
</g>
</g>
</svg>
