<?xml version="1.0" encoding="UTF-8" standalone="no"?>
<!DOCTYPE svg PUBLIC "-//W3C//DTD SVG 1.1//EN"
 "http://www.w3.org/Graphics/SVG/1.1/DTD/svg11.dtd">
<!-- Generated by graphviz version 2.40.1 (0)
 -->
<!-- Title: dependency&#45;cruiser output Pages: 1 -->
<svg width="399pt" height="150pt"
 viewBox="0.00 0.00 399.00 150.00" xmlns="http://www.w3.org/2000/svg" xmlns:xlink="http://www.w3.org/1999/xlink">
<g id="graph0" class="graph" transform="scale(1 1) rotate(0) translate(4 146)">
<title>dependency&#45;cruiser output</title>
<polygon fill="#ffffff" stroke="transparent" points="-4,4 -4,-146 395,-146 395,4 -4,4"/>
<g id="clust1" class="cluster">
<title>cluster_src</title>
<path fill="#ffffff" stroke="#000000" stroke-width="2" d="M20,-8C20,-8 371,-8 371,-8 377,-8 383,-14 383,-20 383,-20 383,-122 383,-122 383,-128 377,-134 371,-134 371,-134 20,-134 20,-134 14,-134 8,-128 8,-122 8,-122 8,-20 8,-20 8,-14 14,-8 20,-8"/>
<text text-anchor="middle" x="195.5" y="-122.8" font-family="Helvetica,sans-Serif" font-weight="bold" font-size="9.00" fill="#000000">src</text>
</g>
<!-- src/event&#45;utils.ts -->
<g id="node1" class="node">
<title>src/event&#45;utils.ts</title>
<g id="a_node1"><a xlink:href="https://github.com/dragonman225/bmvis/tree/master/src/event-utils.ts" xlink:title="event&#45;utils.ts">
<path fill="#ddfeff" stroke="#000000" d="M294.5,-108C294.5,-108 231.5,-108 231.5,-108 228.5,-108 225.5,-105 225.5,-102 225.5,-102 225.5,-96 225.5,-96 225.5,-93 228.5,-90 231.5,-90 231.5,-90 294.5,-90 294.5,-90 297.5,-90 300.5,-93 300.5,-96 300.5,-96 300.5,-102 300.5,-102 300.5,-105 297.5,-108 294.5,-108"/>
<text text-anchor="middle" x="263" y="-96.8" font-family="Helvetica,sans-Serif" font-size="9.00" fill="#000000">event&#45;utils.ts</text>
</a>
</g>
</g>
<!-- src/global&#45;store.ts -->
<g id="node2" class="node">
<title>src/global&#45;store.ts</title>
<g id="a_node2"><a xlink:href="https://github.com/dragonman225/bmvis/tree/master/src/global-store.ts" xlink:title="global&#45;store.ts">
<path fill="#ddfeff" stroke="#000000" d="M297,-34C297,-34 229,-34 229,-34 226,-34 223,-31 223,-28 223,-28 223,-22 223,-22 223,-19 226,-16 229,-16 229,-16 297,-16 297,-16 300,-16 303,-19 303,-22 303,-22 303,-28 303,-28 303,-31 300,-34 297,-34"/>
<text text-anchor="middle" x="263" y="-22.8" font-family="Helvetica,sans-Serif" font-size="9.00" fill="#000000">global&#45;store.ts</text>
</a>
</g>
</g>
<!-- src/graph&#45;passage&#45;details.ts -->
<g id="node3" class="node">
<title>src/graph&#45;passage&#45;details.ts</title>
<g id="a_node3"><a xlink:href="https://github.com/dragonman225/bmvis/tree/master/src/graph-passage-details.ts" xlink:title="graph&#45;passage&#45;details.ts">
<path fill="#ddfeff" stroke="#000000" d="M204,-34C204,-34 89,-34 89,-34 86,-34 83,-31 83,-28 83,-28 83,-22 83,-22 83,-19 86,-16 89,-16 89,-16 204,-16 204,-16 207,-16 210,-19 210,-22 210,-22 210,-28 210,-28 210,-31 207,-34 204,-34"/>
<text text-anchor="middle" x="146.5" y="-22.8" font-family="Helvetica,sans-Serif" font-size="9.00" fill="#000000">graph&#45;passage&#45;details.ts</text>
</a>
</g>
</g>
<!-- src/graph&#45;passage&#45;details.ts&#45;&gt;src/global&#45;store.ts -->
<g id="edge1" class="edge">
<title>src/graph&#45;passage&#45;details.ts&#45;&gt;src/global&#45;store.ts</title>
<path fill="none" stroke="#000000" stroke-width="2" stroke-opacity="0.466667" d="M210.2038,-25C211.0006,-25 211.7961,-25 212.5896,-25"/>
<polygon fill="#000000" fill-opacity="0.466667" stroke="#000000" stroke-width="2" stroke-opacity="0.466667" points="212.7442,-28.5001 222.7442,-25 212.7441,-21.5001 212.7442,-28.5001"/>
</g>
<!-- src/handleFile.ts -->
<g id="node4" class="node">
<title>src/handleFile.ts</title>
<g id="a_node4"><a xlink:href="https://github.com/dragonman225/bmvis/tree/master/src/handleFile.ts" xlink:title="handleFile.ts">
<path fill="#ddfeff" stroke="#000000" d="M293.5,-64C293.5,-64 232.5,-64 232.5,-64 229.5,-64 226.5,-61 226.5,-58 226.5,-58 226.5,-52 226.5,-52 226.5,-49 229.5,-46 232.5,-46 232.5,-46 293.5,-46 293.5,-46 296.5,-46 299.5,-49 299.5,-52 299.5,-52 299.5,-58 299.5,-58 299.5,-61 296.5,-64 293.5,-64"/>
<text text-anchor="middle" x="263" y="-52.8" font-family="Helvetica,sans-Serif" font-size="9.00" fill="#000000">handleFile.ts</text>
</a>
</g>
</g>
<!-- src/strings.ts -->
<g id="node8" class="node">
<title>src/strings.ts</title>
<g id="a_node8"><a xlink:href="https://github.com/dragonman225/bmvis/tree/master/src/strings.ts" xlink:title="strings.ts">
<path fill="#ddfeff" stroke="#000000" d="M369,-75C369,-75 322,-75 322,-75 319,-75 316,-72 316,-69 316,-69 316,-63 316,-63 316,-60 319,-57 322,-57 322,-57 369,-57 369,-57 372,-57 375,-60 375,-63 375,-63 375,-69 375,-69 375,-72 372,-75 369,-75"/>
<text text-anchor="middle" x="345.5" y="-63.8" font-family="Helvetica,sans-Serif" font-size="9.00" fill="#000000">strings.ts</text>
</a>
</g>
</g>
<!-- src/handleFile.ts&#45;&gt;src/strings.ts -->
<g id="edge2" class="edge">
<title>src/handleFile.ts&#45;&gt;src/strings.ts</title>
<path fill="none" stroke="#000000" stroke-width="2" stroke-opacity="0.466667" d="M299.9066,-59.9209C301.8184,-60.1758 303.7429,-60.4324 305.6632,-60.6884"/>
<polygon fill="#000000" fill-opacity="0.466667" stroke="#000000" stroke-width="2" stroke-opacity="0.466667" points="305.4245,-64.1875 315.7994,-62.0399 306.3497,-57.2489 305.4245,-64.1875"/>
</g>
<!-- src/hello&#45;passage&#45;details.ts -->
<g id="node5" class="node">
<title>src/hello&#45;passage&#45;details.ts</title>
<g id="a_node5"><a xlink:href="https://github.com/dragonman225/bmvis/tree/master/src/hello-passage-details.ts" xlink:title="hello&#45;passage&#45;details.ts">
<path fill="#ddfeff" stroke="#000000" d="M201,-64C201,-64 92,-64 92,-64 89,-64 86,-61 86,-58 86,-58 86,-52 86,-52 86,-49 89,-46 92,-46 92,-46 201,-46 201,-46 204,-46 207,-49 207,-52 207,-52 207,-58 207,-58 207,-61 204,-64 201,-64"/>
<text text-anchor="middle" x="146.5" y="-52.8" font-family="Helvetica,sans-Serif" font-size="9.00" fill="#000000">hello&#45;passage&#45;details.ts</text>
</a>
</g>
</g>
<!-- src/hello&#45;passage&#45;details.ts&#45;&gt;src/event&#45;utils.ts -->
<g id="edge3" class="edge">
<title>src/hello&#45;passage&#45;details.ts&#45;&gt;src/event&#45;utils.ts</title>
<path fill="none" stroke="#000000" stroke-width="2" stroke-opacity="0.466667" d="M195.5278,-64.0944C200.5352,-65.7526 205.4486,-67.7046 210,-70 216.7578,-73.4082 216.5977,-76.9633 223,-81 225.476,-82.5612 228.1102,-84.0593 230.7994,-85.4782"/>
<polygon fill="#000000" fill-opacity="0.466667" stroke="#000000" stroke-width="2" stroke-opacity="0.466667" points="229.4819,-88.7298 240.0035,-89.9731 232.5537,-82.4398 229.4819,-88.7298"/>
</g>
<!-- src/hello&#45;passage&#45;details.ts&#45;&gt;src/global&#45;store.ts -->
<g id="edge4" class="edge">
<title>src/hello&#45;passage&#45;details.ts&#45;&gt;src/global&#45;store.ts</title>
<path fill="none" stroke="#000000" stroke-width="2" stroke-opacity="0.466667" d="M185.8596,-45.9862C193.8641,-44.0734 202.2151,-42.0201 210,-40 213.8978,-38.9886 217.9472,-37.9041 221.9931,-36.7978"/>
<polygon fill="#000000" fill-opacity="0.466667" stroke="#000000" stroke-width="2" stroke-opacity="0.466667" points="223.2546,-40.08 231.954,-34.0326 221.3821,-33.3351 223.2546,-40.08"/>
</g>
<!-- src/hello&#45;passage&#45;details.ts&#45;&gt;src/handleFile.ts -->
<g id="edge5" class="edge">
<title>src/hello&#45;passage&#45;details.ts&#45;&gt;src/handleFile.ts</title>
<path fill="none" stroke="#000000" stroke-width="2" stroke-opacity="0.466667" d="M207.1386,-55C210.1967,-55 213.246,-55 216.2527,-55"/>
<polygon fill="#000000" fill-opacity="0.466667" stroke="#000000" stroke-width="2" stroke-opacity="0.466667" points="216.2624,-58.5001 226.2624,-55 216.2623,-51.5001 216.2624,-58.5001"/>
</g>
<!-- src/hello&#45;passage&#45;details.ts&#45;&gt;src/strings.ts -->
<g id="edge6" class="edge">
<title>src/hello&#45;passage&#45;details.ts&#45;&gt;src/strings.ts</title>
<path fill="none" stroke="#000000" stroke-width="2" stroke-opacity="0.466667" d="M184.8107,-64.0198C196.9506,-66.4711 210.4722,-68.7834 223,-70 258.3891,-73.4368 267.4836,-71.6677 303,-70 303.9069,-69.9574 304.8242,-69.9098 305.7491,-69.8576"/>
<polygon fill="#000000" fill-opacity="0.466667" stroke="#000000" stroke-width="2" stroke-opacity="0.466667" points="306.0714,-73.3437 315.8022,-69.1531 305.582,-66.3608 306.0714,-73.3437"/>
</g>
<!-- src/index.ts -->
<g id="node6" class="node">
<title>src/index.ts</title>
<g id="a_node6"><a xlink:href="https://github.com/dragonman225/bmvis/tree/master/src/index.ts" xlink:title="index.ts">
<path fill="#ddfeff" stroke="#000000" d="M64,-64C64,-64 22,-64 22,-64 19,-64 16,-61 16,-58 16,-58 16,-52 16,-52 16,-49 19,-46 22,-46 22,-46 64,-46 64,-46 67,-46 70,-49 70,-52 70,-52 70,-58 70,-58 70,-61 67,-64 64,-64"/>
<text text-anchor="middle" x="43" y="-52.8" font-family="Helvetica,sans-Serif" font-size="9.00" fill="#000000">index.ts</text>
</a>
</g>
</g>
<!-- src/index.ts&#45;&gt;src/graph&#45;passage&#45;details.ts -->
<g id="edge7" class="edge">
<title>src/index.ts&#45;&gt;src/graph&#45;passage&#45;details.ts</title>
<path fill="none" stroke="#000000" stroke-width="2" stroke-opacity="0.466667" d="M65.6737,-45.9281C71.2887,-43.8397 77.3236,-41.7272 83,-40 86.9623,-38.7944 91.0881,-37.6272 95.2499,-36.512"/>
<polygon fill="#000000" fill-opacity="0.466667" stroke="#000000" stroke-width="2" stroke-opacity="0.466667" points="96.1543,-39.8934 104.9659,-34.0107 94.409,-33.1144 96.1543,-39.8934"/>
</g>
<!-- src/index.ts&#45;&gt;src/hello&#45;passage&#45;details.ts -->
<g id="edge8" class="edge">
<title>src/index.ts&#45;&gt;src/hello&#45;passage&#45;details.ts</title>
<path fill="none" stroke="#000000" stroke-width="2" stroke-opacity="0.466667" d="M70.1934,-55C71.8816,-55 73.6153,-55 75.3842,-55"/>
<polygon fill="#000000" fill-opacity="0.466667" stroke="#000000" stroke-width="2" stroke-opacity="0.466667" points="75.8305,-58.5001 85.8305,-55 75.8305,-51.5001 75.8305,-58.5001"/>
</g>
<!-- src/scenectl.ts -->
<g id="node7" class="node">
<title>src/scenectl.ts</title>
<g id="a_node7"><a xlink:href="https://github.com/dragonman225/bmvis/tree/master/src/scenectl.ts" xlink:title="scenectl.ts">
<path fill="#ddfeff" stroke="#000000" d="M173,-94C173,-94 120,-94 120,-94 117,-94 114,-91 114,-88 114,-88 114,-82 114,-82 114,-79 117,-76 120,-76 120,-76 173,-76 173,-76 176,-76 179,-79 179,-82 179,-82 179,-88 179,-88 179,-91 176,-94 173,-94"/>
<text text-anchor="middle" x="146.5" y="-82.8" font-family="Helvetica,sans-Serif" font-size="9.00" fill="#000000">scenectl.ts</text>
</a>
</g>
</g>
<!-- src/index.ts&#45;&gt;src/scenectl.ts -->
<g id="edge9" class="edge">
<title>src/index.ts&#45;&gt;src/scenectl.ts</title>
<path fill="none" stroke="#000000" stroke-width="2" stroke-opacity="0.466667" d="M65.6737,-64.0719C71.2887,-66.1603 77.3236,-68.2728 83,-70 89.6987,-72.0382 96.8646,-73.9667 103.8816,-75.7195"/>
<polygon fill="#000000" fill-opacity="0.466667" stroke="#000000" stroke-width="2" stroke-opacity="0.466667" points="103.4422,-79.2138 113.9839,-78.1544 105.0824,-72.4086 103.4422,-79.2138"/>
</g>
</g>
</svg>
