<?xml version="1.0" encoding="UTF-8" standalone="no"?>
<!DOCTYPE svg PUBLIC "-//W3C//DTD SVG 1.1//EN"
 "http://www.w3.org/Graphics/SVG/1.1/DTD/svg11.dtd">
<!-- Generated by graphviz version 2.40.1 (0)
 -->
<!-- Title: dependency&#45;cruiser output Pages: 1 -->
<svg width="357pt" height="194pt"
 viewBox="0.00 0.00 357.00 194.00" xmlns="http://www.w3.org/2000/svg" xmlns:xlink="http://www.w3.org/1999/xlink">
<g id="graph0" class="graph" transform="scale(1 1) rotate(0) translate(4 190)">
<title>dependency&#45;cruiser output</title>
<polygon fill="#ffffff" stroke="transparent" points="-4,4 -4,-190 353,-190 353,4 -4,4"/>
<g id="clust1" class="cluster">
<title>cluster_src</title>
<path fill="#ffffff" stroke="#000000" stroke-width="2" d="M20,-8C20,-8 329,-8 329,-8 335,-8 341,-14 341,-20 341,-20 341,-166 341,-166 341,-172 335,-178 329,-178 329,-178 20,-178 20,-178 14,-178 8,-172 8,-166 8,-166 8,-20 8,-20 8,-14 14,-8 20,-8"/>
<text text-anchor="middle" x="174.5" y="-166.8" font-family="Helvetica,sans-Serif" font-weight="bold" font-size="9.00" fill="#000000">src</text>
</g>
<!-- src/circle&#45;graph.ts -->
<g id="node1" class="node">
<title>src/circle&#45;graph.ts</title>
<g id="a_node1"><a xlink:href="https://github.com/dragonman225/bmvis/tree/master/src/circle-graph.ts" xlink:title="circle&#45;graph.ts">
<path fill="#ddfeff" stroke="#000000" d="M255,-34C255,-34 186,-34 186,-34 183,-34 180,-31 180,-28 180,-28 180,-22 180,-22 180,-19 183,-16 186,-16 186,-16 255,-16 255,-16 258,-16 261,-19 261,-22 261,-22 261,-28 261,-28 261,-31 258,-34 255,-34"/>
<text text-anchor="middle" x="220.5" y="-22.8" font-family="Helvetica,sans-Serif" font-size="9.00" fill="#000000">circle&#45;graph.ts</text>
</a>
</g>
</g>
<!-- src/event&#45;utils.ts -->
<g id="node2" class="node">
<title>src/event&#45;utils.ts</title>
<g id="a_node2"><a xlink:href="https://github.com/dragonman225/bmvis/tree/master/src/event-utils.ts" xlink:title="event&#45;utils.ts">
<path fill="#ddfeff" stroke="#000000" d="M252,-108C252,-108 189,-108 189,-108 186,-108 183,-105 183,-102 183,-102 183,-96 183,-96 183,-93 186,-90 189,-90 189,-90 252,-90 252,-90 255,-90 258,-93 258,-96 258,-96 258,-102 258,-102 258,-105 255,-108 252,-108"/>
<text text-anchor="middle" x="220.5" y="-96.8" font-family="Helvetica,sans-Serif" font-size="9.00" fill="#000000">event&#45;utils.ts</text>
</a>
</g>
</g>
<!-- src/global&#45;store.ts -->
<g id="node3" class="node">
<title>src/global&#45;store.ts</title>
<g id="a_node3"><a xlink:href="https://github.com/dragonman225/bmvis/tree/master/src/global-store.ts" xlink:title="global&#45;store.ts">
<path fill="#ddfeff" stroke="#000000" d="M254.5,-78C254.5,-78 186.5,-78 186.5,-78 183.5,-78 180.5,-75 180.5,-72 180.5,-72 180.5,-66 180.5,-66 180.5,-63 183.5,-60 186.5,-60 186.5,-60 254.5,-60 254.5,-60 257.5,-60 260.5,-63 260.5,-66 260.5,-66 260.5,-72 260.5,-72 260.5,-75 257.5,-78 254.5,-78"/>
<text text-anchor="middle" x="220.5" y="-66.8" font-family="Helvetica,sans-Serif" font-size="9.00" fill="#000000">global&#45;store.ts</text>
</a>
</g>
</g>
<!-- src/graph&#45;scene.ts -->
<g id="node4" class="node">
<title>src/graph&#45;scene.ts</title>
<g id="a_node4"><a xlink:href="https://github.com/dragonman225/bmvis/tree/master/src/graph-scene.ts" xlink:title="graph&#45;scene.ts">
<path fill="#ddfeff" stroke="#000000" d="M161,-67C161,-67 89,-67 89,-67 86,-67 83,-64 83,-61 83,-61 83,-55 83,-55 83,-52 86,-49 89,-49 89,-49 161,-49 161,-49 164,-49 167,-52 167,-55 167,-55 167,-61 167,-61 167,-64 164,-67 161,-67"/>
<text text-anchor="middle" x="125" y="-55.8" font-family="Helvetica,sans-Serif" font-size="9.00" fill="#000000">graph&#45;scene.ts</text>
</a>
</g>
</g>
<!-- src/graph&#45;scene.ts&#45;&gt;src/circle&#45;graph.ts -->
<g id="edge1" class="edge">
<title>src/graph&#45;scene.ts&#45;&gt;src/circle&#45;graph.ts</title>
<path fill="none" stroke="#000000" stroke-width="2" stroke-opacity="0.466667" d="M151.0958,-48.9826C161.518,-45.3812 173.6864,-41.1764 184.8977,-37.3024"/>
<polygon fill="#000000" fill-opacity="0.466667" stroke="#000000" stroke-width="2" stroke-opacity="0.466667" points="186.1273,-40.5806 194.4358,-34.0065 183.841,-33.9645 186.1273,-40.5806"/>
</g>
<!-- src/graph&#45;scene.ts&#45;&gt;src/global&#45;store.ts -->
<g id="edge2" class="edge">
<title>src/graph&#45;scene.ts&#45;&gt;src/global&#45;store.ts</title>
<path fill="none" stroke="#000000" stroke-width="2" stroke-opacity="0.466667" d="M167.1657,-62.8568C168.1275,-62.9676 169.0925,-63.0787 170.0589,-63.19"/>
<polygon fill="#000000" fill-opacity="0.466667" stroke="#000000" stroke-width="2" stroke-opacity="0.466667" points="170.0624,-66.7135 180.3972,-64.3808 170.8634,-59.7595 170.0624,-66.7135"/>
</g>
<!-- src/strings.ts -->
<g id="node9" class="node">
<title>src/strings.ts</title>
<g id="a_node9"><a xlink:href="https://github.com/dragonman225/bmvis/tree/master/src/strings.ts" xlink:title="strings.ts">
<path fill="#ddfeff" stroke="#000000" d="M327,-138C327,-138 280,-138 280,-138 277,-138 274,-135 274,-132 274,-132 274,-126 274,-126 274,-123 277,-120 280,-120 280,-120 327,-120 327,-120 330,-120 333,-123 333,-126 333,-126 333,-132 333,-132 333,-135 330,-138 327,-138"/>
<text text-anchor="middle" x="303.5" y="-126.8" font-family="Helvetica,sans-Serif" font-size="9.00" fill="#000000">strings.ts</text>
</a>
</g>
</g>
<!-- src/graph&#45;scene.ts&#45;&gt;src/strings.ts -->
<g id="edge3" class="edge">
<title>src/graph&#45;scene.ts&#45;&gt;src/strings.ts</title>
<path fill="none" stroke="#000000" stroke-width="2" stroke-opacity="0.466667" d="M153.1703,-48.9852C182.2583,-41.453 227.9375,-34.7335 261,-54 281.6569,-66.0374 293.0828,-92.257 298.7544,-110.2712"/>
<polygon fill="#000000" fill-opacity="0.466667" stroke="#000000" stroke-width="2" stroke-opacity="0.466667" points="295.4166,-111.3298 301.5145,-119.9939 302.1505,-109.4182 295.4166,-111.3298"/>
</g>
<!-- src/handleFile.ts -->
<g id="node5" class="node">
<title>src/handleFile.ts</title>
<g id="a_node5"><a xlink:href="https://github.com/dragonman225/bmvis/tree/master/src/handleFile.ts" xlink:title="handleFile.ts">
<path fill="#ddfeff" stroke="#000000" d="M251,-138C251,-138 190,-138 190,-138 187,-138 184,-135 184,-132 184,-132 184,-126 184,-126 184,-123 187,-120 190,-120 190,-120 251,-120 251,-120 254,-120 257,-123 257,-126 257,-126 257,-132 257,-132 257,-135 254,-138 251,-138"/>
<text text-anchor="middle" x="220.5" y="-126.8" font-family="Helvetica,sans-Serif" font-size="9.00" fill="#000000">handleFile.ts</text>
</a>
</g>
</g>
<!-- src/handleFile.ts&#45;&gt;src/strings.ts -->
<g id="edge4" class="edge">
<title>src/handleFile.ts&#45;&gt;src/strings.ts</title>
<path fill="none" stroke="#000000" stroke-width="2" stroke-opacity="0.466667" d="M257.1466,-129C259.318,-129 261.5073,-129 263.6903,-129"/>
<polygon fill="#000000" fill-opacity="0.466667" stroke="#000000" stroke-width="2" stroke-opacity="0.466667" points="263.7696,-132.5001 273.7695,-129 263.7695,-125.5001 263.7696,-132.5001"/>
</g>
<!-- src/hello&#45;scene.ts -->
<g id="node6" class="node">
<title>src/hello&#45;scene.ts</title>
<g id="a_node6"><a xlink:href="https://github.com/dragonman225/bmvis/tree/master/src/hello-scene.ts" xlink:title="hello&#45;scene.ts">
<path fill="#ddfeff" stroke="#000000" d="M158,-108C158,-108 92,-108 92,-108 89,-108 86,-105 86,-102 86,-102 86,-96 86,-96 86,-93 89,-90 92,-90 92,-90 158,-90 158,-90 161,-90 164,-93 164,-96 164,-96 164,-102 164,-102 164,-105 161,-108 158,-108"/>
<text text-anchor="middle" x="125" y="-96.8" font-family="Helvetica,sans-Serif" font-size="9.00" fill="#000000">hello&#45;scene.ts</text>
</a>
</g>
</g>
<!-- src/hello&#45;scene.ts&#45;&gt;src/event&#45;utils.ts -->
<g id="edge5" class="edge">
<title>src/hello&#45;scene.ts&#45;&gt;src/event&#45;utils.ts</title>
<path fill="none" stroke="#000000" stroke-width="2" stroke-opacity="0.466667" d="M164.1191,-99C166.92,-99 169.7619,-99 172.6044,-99"/>
<polygon fill="#000000" fill-opacity="0.466667" stroke="#000000" stroke-width="2" stroke-opacity="0.466667" points="172.8287,-102.5001 182.8287,-99 172.8287,-95.5001 172.8287,-102.5001"/>
</g>
<!-- src/hello&#45;scene.ts&#45;&gt;src/global&#45;store.ts -->
<g id="edge6" class="edge">
<title>src/hello&#45;scene.ts&#45;&gt;src/global&#45;store.ts</title>
<path fill="none" stroke="#000000" stroke-width="2" stroke-opacity="0.466667" d="M153.6531,-89.999C162.5425,-87.2065 172.4891,-84.082 181.937,-81.114"/>
<polygon fill="#000000" fill-opacity="0.466667" stroke="#000000" stroke-width="2" stroke-opacity="0.466667" points="183.0456,-84.4345 191.537,-78.0983 180.9477,-77.7562 183.0456,-84.4345"/>
</g>
<!-- src/hello&#45;scene.ts&#45;&gt;src/handleFile.ts -->
<g id="edge7" class="edge">
<title>src/hello&#45;scene.ts&#45;&gt;src/handleFile.ts</title>
<path fill="none" stroke="#000000" stroke-width="2" stroke-opacity="0.466667" d="M153.6531,-108.001C162.5425,-110.7935 172.4891,-113.918 181.937,-116.886"/>
<polygon fill="#000000" fill-opacity="0.466667" stroke="#000000" stroke-width="2" stroke-opacity="0.466667" points="180.9477,-120.2438 191.537,-119.9017 183.0456,-113.5655 180.9477,-120.2438"/>
</g>
<!-- src/hello&#45;scene.ts&#45;&gt;src/strings.ts -->
<g id="edge8" class="edge">
<title>src/hello&#45;scene.ts&#45;&gt;src/strings.ts</title>
<path fill="none" stroke="#000000" stroke-width="2" stroke-opacity="0.466667" d="M158.5876,-108.0327C161.6402,-109.7006 164.513,-111.6717 167,-114 177.6081,-123.9312 167.8526,-136.025 180,-144 208.6577,-162.8143 249.2542,-152.5323 275.9688,-142.0015"/>
<polygon fill="#000000" fill-opacity="0.466667" stroke="#000000" stroke-width="2" stroke-opacity="0.466667" points="277.6068,-145.1099 285.4739,-138.0135 274.8985,-138.6551 277.6068,-145.1099"/>
</g>
<!-- src/index.ts -->
<g id="node7" class="node">
<title>src/index.ts</title>
<g id="a_node7"><a xlink:href="https://github.com/dragonman225/bmvis/tree/master/src/index.ts" xlink:title="index.ts">
<path fill="#ddfeff" stroke="#000000" d="M64,-108C64,-108 22,-108 22,-108 19,-108 16,-105 16,-102 16,-102 16,-96 16,-96 16,-93 19,-90 22,-90 22,-90 64,-90 64,-90 67,-90 70,-93 70,-96 70,-96 70,-102 70,-102 70,-105 67,-108 64,-108"/>
<text text-anchor="middle" x="43" y="-96.8" font-family="Helvetica,sans-Serif" font-size="9.00" fill="#000000">index.ts</text>
</a>
</g>
</g>
<!-- src/index.ts&#45;&gt;src/graph&#45;scene.ts -->
<g id="edge9" class="edge">
<title>src/index.ts&#45;&gt;src/graph&#45;scene.ts</title>
<path fill="none" stroke="#000000" stroke-width="2" stroke-opacity="0.466667" d="M61.1985,-89.9008C71.9209,-84.5396 85.694,-77.653 97.6974,-71.6513"/>
<polygon fill="#000000" fill-opacity="0.466667" stroke="#000000" stroke-width="2" stroke-opacity="0.466667" points="99.4734,-74.6765 106.8524,-67.0738 96.3429,-68.4155 99.4734,-74.6765"/>
</g>
<!-- src/index.ts&#45;&gt;src/hello&#45;scene.ts -->
<g id="edge10" class="edge">
<title>src/index.ts&#45;&gt;src/hello&#45;scene.ts</title>
<path fill="none" stroke="#000000" stroke-width="2" stroke-opacity="0.466667" d="M70.3048,-99C72.0344,-99 73.8008,-99 75.5895,-99"/>
<polygon fill="#000000" fill-opacity="0.466667" stroke="#000000" stroke-width="2" stroke-opacity="0.466667" points="75.9775,-102.5001 85.9775,-99 75.9775,-95.5001 75.9775,-102.5001"/>
</g>
<!-- src/scenectl.ts -->
<g id="node8" class="node">
<title>src/scenectl.ts</title>
<g id="a_node8"><a xlink:href="https://github.com/dragonman225/bmvis/tree/master/src/scenectl.ts" xlink:title="scenectl.ts">
<path fill="#ddfeff" stroke="#000000" d="M151.5,-138C151.5,-138 98.5,-138 98.5,-138 95.5,-138 92.5,-135 92.5,-132 92.5,-132 92.5,-126 92.5,-126 92.5,-123 95.5,-120 98.5,-120 98.5,-120 151.5,-120 151.5,-120 154.5,-120 157.5,-123 157.5,-126 157.5,-126 157.5,-132 157.5,-132 157.5,-135 154.5,-138 151.5,-138"/>
<text text-anchor="middle" x="125" y="-126.8" font-family="Helvetica,sans-Serif" font-size="9.00" fill="#000000">scenectl.ts</text>
</a>
</g>
</g>
<!-- src/index.ts&#45;&gt;src/scenectl.ts -->
<g id="edge11" class="edge">
<title>src/index.ts&#45;&gt;src/scenectl.ts</title>
<path fill="none" stroke="#000000" stroke-width="2" stroke-opacity="0.466667" d="M67.0906,-108.1039C72.3295,-110.0642 77.8461,-112.1134 83,-114 85.2085,-114.8084 87.4843,-115.6362 89.7802,-116.4673"/>
<polygon fill="#000000" fill-opacity="0.466667" stroke="#000000" stroke-width="2" stroke-opacity="0.466667" points="88.6169,-119.7684 99.2114,-119.862 90.9877,-113.182 88.6169,-119.7684"/>
</g>
</g>
</svg>
