<?xml version="1.0" encoding="UTF-8" standalone="no"?>
<!DOCTYPE svg PUBLIC "-//W3C//DTD SVG 1.1//EN"
 "http://www.w3.org/Graphics/SVG/1.1/DTD/svg11.dtd">
<!-- Generated by graphviz version 2.40.1 (0)
 -->
<!-- Title: dependency&#45;cruiser output Pages: 1 -->
<svg width="365pt" height="250pt"
 viewBox="0.00 0.00 365.00 250.00" xmlns="http://www.w3.org/2000/svg" xmlns:xlink="http://www.w3.org/1999/xlink">
<g id="graph0" class="graph" transform="scale(1 1) rotate(0) translate(4 246)">
<title>dependency&#45;cruiser output</title>
<polygon fill="#ffffff" stroke="transparent" points="-4,4 -4,-246 361,-246 361,4 -4,4"/>
<g id="clust1" class="cluster">
<title>cluster_src</title>
<path fill="#ffffff" stroke="#000000" stroke-width="2" d="M20,-8C20,-8 337,-8 337,-8 343,-8 349,-14 349,-20 349,-20 349,-222 349,-222 349,-228 343,-234 337,-234 337,-234 20,-234 20,-234 14,-234 8,-228 8,-222 8,-222 8,-20 8,-20 8,-14 14,-8 20,-8"/>
<text text-anchor="middle" x="178.5" y="-222.8" font-family="Helvetica,sans-Serif" font-weight="bold" font-size="9.00" fill="#000000">src</text>
</g>
<g id="clust2" class="cluster">
<title>cluster_src/lib</title>
<path fill="#ffffff" stroke="#000000" stroke-width="2" d="M187,-96C187,-96 329,-96 329,-96 335,-96 341,-102 341,-108 341,-108 341,-196 341,-196 341,-202 335,-208 329,-208 329,-208 187,-208 187,-208 181,-208 175,-202 175,-196 175,-196 175,-108 175,-108 175,-102 181,-96 187,-96"/>
<text text-anchor="middle" x="258" y="-196.8" font-family="Helvetica,sans-Serif" font-weight="bold" font-size="9.00" fill="#000000">lib</text>
</g>
<!-- src/circle&#45;graph.ts -->
<g id="node1" class="node">
<title>src/circle&#45;graph.ts</title>
<g id="a_node1"><a xlink:href="https://github.com/dragonman225/bmvis/tree/master/src/circle-graph.ts" xlink:title="circle&#45;graph.ts">
<path fill="#ddfeff" stroke="#000000" d="M255,-34C255,-34 186,-34 186,-34 183,-34 180,-31 180,-28 180,-28 180,-22 180,-22 180,-19 183,-16 186,-16 186,-16 255,-16 255,-16 258,-16 261,-19 261,-22 261,-22 261,-28 261,-28 261,-31 258,-34 255,-34"/>
<text text-anchor="middle" x="220.5" y="-22.8" font-family="Helvetica,sans-Serif" font-size="9.00" fill="#000000">circle&#45;graph.ts</text>
</a>
</g>
</g>
<!-- src/global&#45;state.ts -->
<g id="node2" class="node">
<title>src/global&#45;state.ts</title>
<g id="a_node2"><a xlink:href="https://github.com/dragonman225/bmvis/tree/master/src/global-state.ts" xlink:title="global&#45;state.ts">
<path fill="#ddfeff" stroke="#000000" d="M254.5,-78C254.5,-78 186.5,-78 186.5,-78 183.5,-78 180.5,-75 180.5,-72 180.5,-72 180.5,-66 180.5,-66 180.5,-63 183.5,-60 186.5,-60 186.5,-60 254.5,-60 254.5,-60 257.5,-60 260.5,-63 260.5,-66 260.5,-66 260.5,-72 260.5,-72 260.5,-75 257.5,-78 254.5,-78"/>
<text text-anchor="middle" x="220.5" y="-66.8" font-family="Helvetica,sans-Serif" font-size="9.00" fill="#000000">global&#45;state.ts</text>
</a>
</g>
</g>
<!-- src/graph&#45;scene.ts -->
<g id="node3" class="node">
<title>src/graph&#45;scene.ts</title>
<g id="a_node3"><a xlink:href="https://github.com/dragonman225/bmvis/tree/master/src/graph-scene.ts" xlink:title="graph&#45;scene.ts">
<path fill="#ddfeff" stroke="#000000" d="M161,-70C161,-70 89,-70 89,-70 86,-70 83,-67 83,-64 83,-64 83,-58 83,-58 83,-55 86,-52 89,-52 89,-52 161,-52 161,-52 164,-52 167,-55 167,-58 167,-58 167,-64 167,-64 167,-67 164,-70 161,-70"/>
<text text-anchor="middle" x="125" y="-58.8" font-family="Helvetica,sans-Serif" font-size="9.00" fill="#000000">graph&#45;scene.ts</text>
</a>
</g>
</g>
<!-- src/graph&#45;scene.ts&#45;&gt;src/circle&#45;graph.ts -->
<g id="edge1" class="edge">
<title>src/graph&#45;scene.ts&#45;&gt;src/circle&#45;graph.ts</title>
<path fill="none" stroke="#000000" stroke-width="2" stroke-opacity="0.466667" d="M149.0987,-51.9157C160.522,-47.6095 174.3614,-42.3926 186.8033,-37.7024"/>
<polygon fill="#000000" fill-opacity="0.466667" stroke="#000000" stroke-width="2" stroke-opacity="0.466667" points="188.2864,-40.8838 196.409,-34.0814 185.8172,-34.3338 188.2864,-40.8838"/>
</g>
<!-- src/graph&#45;scene.ts&#45;&gt;src/global&#45;state.ts -->
<g id="edge2" class="edge">
<title>src/graph&#45;scene.ts&#45;&gt;src/global&#45;state.ts</title>
<path fill="none" stroke="#000000" stroke-width="2" stroke-opacity="0.466667" d="M167.1657,-64.5322C168.1275,-64.6128 169.0925,-64.6936 170.0589,-64.7746"/>
<polygon fill="#000000" fill-opacity="0.466667" stroke="#000000" stroke-width="2" stroke-opacity="0.466667" points="170.1399,-68.2935 180.3972,-65.6406 170.7243,-61.318 170.1399,-68.2935"/>
</g>
<!-- src/lib/strings.ts -->
<g id="node9" class="node">
<title>src/lib/strings.ts</title>
<g id="a_node9"><a xlink:href="https://github.com/dragonman225/bmvis/tree/master/src/lib/strings.ts" xlink:title="strings.ts">
<path fill="#ddfeff" stroke="#000000" d="M327,-122C327,-122 280,-122 280,-122 277,-122 274,-119 274,-116 274,-116 274,-110 274,-110 274,-107 277,-104 280,-104 280,-104 327,-104 327,-104 330,-104 333,-107 333,-110 333,-110 333,-116 333,-116 333,-119 330,-122 327,-122"/>
<text text-anchor="middle" x="303.5" y="-110.8" font-family="Helvetica,sans-Serif" font-size="9.00" fill="#000000">strings.ts</text>
</a>
</g>
</g>
<!-- src/graph&#45;scene.ts&#45;&gt;src/lib/strings.ts -->
<g id="edge3" class="edge">
<title>src/graph&#45;scene.ts&#45;&gt;src/lib/strings.ts</title>
<path fill="none" stroke="#000000" stroke-width="2" stroke-opacity="0.466667" d="M152.224,-51.9453C180.9423,-44.0756 226.6989,-36.4347 261,-54 277.4558,-62.4269 288.9928,-80.5215 295.8533,-94.4644"/>
<polygon fill="#000000" fill-opacity="0.466667" stroke="#000000" stroke-width="2" stroke-opacity="0.466667" points="292.7145,-96.0177 300.0257,-103.6856 299.092,-93.132 292.7145,-96.0177"/>
</g>
<!-- src/hello&#45;scene.ts -->
<g id="node4" class="node">
<title>src/hello&#45;scene.ts</title>
<g id="a_node4"><a xlink:href="https://github.com/dragonman225/bmvis/tree/master/src/hello-scene.ts" xlink:title="hello&#45;scene.ts">
<path fill="#ddfeff" stroke="#000000" d="M158,-107C158,-107 92,-107 92,-107 89,-107 86,-104 86,-101 86,-101 86,-95 86,-95 86,-92 89,-89 92,-89 92,-89 158,-89 158,-89 161,-89 164,-92 164,-95 164,-95 164,-101 164,-101 164,-104 161,-107 158,-107"/>
<text text-anchor="middle" x="125" y="-95.8" font-family="Helvetica,sans-Serif" font-size="9.00" fill="#000000">hello&#45;scene.ts</text>
</a>
</g>
</g>
<!-- src/hello&#45;scene.ts&#45;&gt;src/global&#45;state.ts -->
<g id="edge4" class="edge">
<title>src/hello&#45;scene.ts&#45;&gt;src/global&#45;state.ts</title>
<path fill="none" stroke="#000000" stroke-width="2" stroke-opacity="0.466667" d="M154.6933,-88.9832C163.0476,-86.4463 172.2668,-83.6467 181.0934,-80.9664"/>
<polygon fill="#000000" fill-opacity="0.466667" stroke="#000000" stroke-width="2" stroke-opacity="0.466667" points="182.2735,-84.2659 190.8251,-78.0112 180.2395,-77.5679 182.2735,-84.2659"/>
</g>
<!-- src/lib/event&#45;utils.ts -->
<g id="node6" class="node">
<title>src/lib/event&#45;utils.ts</title>
<g id="a_node6"><a xlink:href="https://github.com/dragonman225/bmvis/tree/master/src/lib/event-utils.ts" xlink:title="event&#45;utils.ts">
<path fill="#ddfeff" stroke="#000000" d="M252,-152C252,-152 189,-152 189,-152 186,-152 183,-149 183,-146 183,-146 183,-140 183,-140 183,-137 186,-134 189,-134 189,-134 252,-134 252,-134 255,-134 258,-137 258,-140 258,-140 258,-146 258,-146 258,-149 255,-152 252,-152"/>
<text text-anchor="middle" x="220.5" y="-140.8" font-family="Helvetica,sans-Serif" font-size="9.00" fill="#000000">event&#45;utils.ts</text>
</a>
</g>
</g>
<!-- src/hello&#45;scene.ts&#45;&gt;src/lib/event&#45;utils.ts -->
<g id="edge5" class="edge">
<title>src/hello&#45;scene.ts&#45;&gt;src/lib/event&#45;utils.ts</title>
<path fill="none" stroke="#000000" stroke-width="2" stroke-opacity="0.466667" d="M138.5576,-107.2621C148.3688,-113.6802 162.1144,-122.0992 175,-128 176.7582,-128.8052 178.5724,-129.5878 180.4178,-130.3454"/>
<polygon fill="#000000" fill-opacity="0.466667" stroke="#000000" stroke-width="2" stroke-opacity="0.466667" points="179.2004,-133.6269 189.7914,-133.9124 181.6901,-127.0846 179.2004,-133.6269"/>
</g>
<!-- src/lib/handleFile.ts -->
<g id="node7" class="node">
<title>src/lib/handleFile.ts</title>
<g id="a_node7"><a xlink:href="https://github.com/dragonman225/bmvis/tree/master/src/lib/handleFile.ts" xlink:title="handleFile.ts">
<path fill="#ddfeff" stroke="#000000" d="M251,-122C251,-122 190,-122 190,-122 187,-122 184,-119 184,-116 184,-116 184,-110 184,-110 184,-107 187,-104 190,-104 190,-104 251,-104 251,-104 254,-104 257,-107 257,-110 257,-110 257,-116 257,-116 257,-119 254,-122 251,-122"/>
<text text-anchor="middle" x="220.5" y="-110.8" font-family="Helvetica,sans-Serif" font-size="9.00" fill="#000000">handleFile.ts</text>
</a>
</g>
</g>
<!-- src/hello&#45;scene.ts&#45;&gt;src/lib/handleFile.ts -->
<g id="edge6" class="edge">
<title>src/hello&#45;scene.ts&#45;&gt;src/lib/handleFile.ts</title>
<path fill="none" stroke="#000000" stroke-width="2" stroke-opacity="0.466667" d="M164.1191,-104.1444C167.2628,-104.6381 170.4582,-105.14 173.6483,-105.6411"/>
<polygon fill="#000000" fill-opacity="0.466667" stroke="#000000" stroke-width="2" stroke-opacity="0.466667" points="173.327,-109.1335 183.749,-107.2276 174.4132,-102.2182 173.327,-109.1335"/>
</g>
<!-- src/hello&#45;scene.ts&#45;&gt;src/lib/strings.ts -->
<g id="edge7" class="edge">
<title>src/hello&#45;scene.ts&#45;&gt;src/lib/strings.ts</title>
<path fill="none" stroke="#000000" stroke-width="2" stroke-opacity="0.466667" d="M164.281,-94.5107C191.6052,-92.9318 228.7681,-92.4789 261,-98 264.7693,-98.6457 268.6485,-99.5915 272.4582,-100.6994"/>
<polygon fill="#000000" fill-opacity="0.466667" stroke="#000000" stroke-width="2" stroke-opacity="0.466667" points="271.6644,-104.1225 282.2572,-103.9157 273.8474,-97.4716 271.6644,-104.1225"/>
</g>
<!-- src/index.ts -->
<g id="node5" class="node">
<title>src/index.ts</title>
<g id="a_node5"><a xlink:href="https://github.com/dragonman225/bmvis/tree/master/src/index.ts" xlink:title="index.ts">
<path fill="#ddfeff" stroke="#000000" d="M64,-107C64,-107 22,-107 22,-107 19,-107 16,-104 16,-101 16,-101 16,-95 16,-95 16,-92 19,-89 22,-89 22,-89 64,-89 64,-89 67,-89 70,-92 70,-95 70,-95 70,-101 70,-101 70,-104 67,-107 64,-107"/>
<text text-anchor="middle" x="43" y="-95.8" font-family="Helvetica,sans-Serif" font-size="9.00" fill="#000000">index.ts</text>
</a>
</g>
</g>
<!-- src/index.ts&#45;&gt;src/graph&#45;scene.ts -->
<g id="edge8" class="edge">
<title>src/index.ts&#45;&gt;src/graph&#45;scene.ts</title>
<path fill="none" stroke="#000000" stroke-width="2" stroke-opacity="0.466667" d="M63.2697,-88.8539C73.0011,-84.4629 84.8469,-79.1179 95.5495,-74.2887"/>
<polygon fill="#000000" fill-opacity="0.466667" stroke="#000000" stroke-width="2" stroke-opacity="0.466667" points="97.288,-77.3441 104.9635,-70.0409 94.4089,-70.9635 97.288,-77.3441"/>
</g>
<!-- src/index.ts&#45;&gt;src/hello&#45;scene.ts -->
<g id="edge9" class="edge">
<title>src/index.ts&#45;&gt;src/hello&#45;scene.ts</title>
<path fill="none" stroke="#000000" stroke-width="2" stroke-opacity="0.466667" d="M70.3048,-98C72.0344,-98 73.8008,-98 75.5895,-98"/>
<polygon fill="#000000" fill-opacity="0.466667" stroke="#000000" stroke-width="2" stroke-opacity="0.466667" points="75.9775,-101.5001 85.9775,-98 75.9775,-94.5001 75.9775,-101.5001"/>
</g>
<!-- src/lib/scene&#45;ctl.ts -->
<g id="node8" class="node">
<title>src/lib/scene&#45;ctl.ts</title>
<g id="a_node8"><a xlink:href="https://github.com/dragonman225/bmvis/tree/master/src/lib/scene-ctl.ts" xlink:title="scene&#45;ctl.ts">
<path fill="#ddfeff" stroke="#000000" d="M248.5,-182C248.5,-182 192.5,-182 192.5,-182 189.5,-182 186.5,-179 186.5,-176 186.5,-176 186.5,-170 186.5,-170 186.5,-167 189.5,-164 192.5,-164 192.5,-164 248.5,-164 248.5,-164 251.5,-164 254.5,-167 254.5,-170 254.5,-170 254.5,-176 254.5,-176 254.5,-179 251.5,-182 248.5,-182"/>
<text text-anchor="middle" x="220.5" y="-170.8" font-family="Helvetica,sans-Serif" font-size="9.00" fill="#000000">scene&#45;ctl.ts</text>
</a>
</g>
</g>
<!-- src/index.ts&#45;&gt;src/lib/scene&#45;ctl.ts -->
<g id="edge10" class="edge">
<title>src/index.ts&#45;&gt;src/lib/scene&#45;ctl.ts</title>
<path fill="none" stroke="#000000" stroke-width="2" stroke-opacity="0.466667" d="M61.5257,-107.1916C86.8184,-119.5619 133.7345,-141.874 175,-158 177.2224,-158.8685 179.5181,-159.7307 181.8427,-160.5771"/>
<polygon fill="#000000" fill-opacity="0.466667" stroke="#000000" stroke-width="2" stroke-opacity="0.466667" points="180.8538,-163.9392 191.4486,-163.9435 183.1689,-157.3331 180.8538,-163.9392"/>
</g>
<!-- src/lib/handleFile.ts&#45;&gt;src/lib/strings.ts -->
<g id="edge11" class="edge">
<title>src/lib/handleFile.ts&#45;&gt;src/lib/strings.ts</title>
<path fill="none" stroke="#000000" stroke-width="2" stroke-opacity="0.466667" d="M257.1466,-113C259.318,-113 261.5073,-113 263.6903,-113"/>
<polygon fill="#000000" fill-opacity="0.466667" stroke="#000000" stroke-width="2" stroke-opacity="0.466667" points="263.7696,-116.5001 273.7695,-113 263.7695,-109.5001 263.7696,-116.5001"/>
</g>
</g>
</svg>
